<svg xmlns="http://www.w3.org/2000/svg" width="15.002" height="15.002"><path fill="#fff" d="M4.375 11.25a1.25 1.25 0 101.25 1.251 1.248 1.248 0 00-1.25-1.251zm-3.75-10V2.5h1.25l2.25 4.745-.843 1.531a1.209 1.209 0 00-.156.6 1.254 1.254 0 001.25 1.25h7.5v-1.25H4.638a.155.155 0 01-.156-.156l.019-.075.563-1.019h4.657a1.244 1.244 0 001.094-.644l2.238-4.057a.611.611 0 00.075-.3.627.627 0 00-.625-.625H3.257l-.588-1.25H.625zm10 10a1.25 1.25 0 101.25 1.25 1.248 1.248 0 00-1.25-1.25z" data-name="Path 479"/><path fill="none" d="M0 0h15v15H0z" data-name="Path 480"/></svg>