<svg xmlns="http://www.w3.org/2000/svg" width="15.515" height="11.296" viewBox="0 0 15.515 11.296">
    <path id="prefix__Path_1012" fill="#b569a7" d="M183.375 262.553a2.968 2.968 0 0 0-2.671-4.25h-3.817a2.9 2.9 0 0 0-1.236.273c.005-.08.008-.163.008-.245a3.246 3.246 0 1 0-2.021 3.014l-.957 2.237a1.973 1.973 0 1 0 3.634 1.538l.382-.9c.064 0 .126.005.191.005h1.169v.155a1.965 1.965 0 0 0 1.969 1.972l2.666.021a1.971 1.971 0 0 0 .686-3.822zm-10.975-1.742a2.477 2.477 0 1 1 2.48-2.48 2.478 2.478 0 0 1-2.48 2.48zm10.289 4.79l-2.671-.021a1.193 1.193 0 0 1-1.195-1.2v-.013a1.158 1.158 0 0 1 .09-.48l.186-.434h-2.219a2.228 2.228 0 0 1-.658-.111l-.63 1.476a1.2 1.2 0 1 1-2.206-.932l1.45-3.388a2.182 2.182 0 0 1 2.044-1.422h3.82a2.184 2.184 0 0 1 1.148 4.044l-.034.08.877.005a1.2 1.2 0 0 1 0 2.395z" data-name="Path 1012" transform="translate(-169.153 -255.079)"/>
</svg>
