<svg xmlns="http://www.w3.org/2000/svg" width="10.632" height="11.45" viewBox="0 0 10.632 11.45">
    <path id="prefix__Exclusion_1" fill="#fff" d="M9.451 11.45h-8.27A1.165 1.165 0 0 1 0 10.305V2.29a1.165 1.165 0 0 1 1.181-1.145h2.47a1.784 1.784 0 0 1 3.331 0h2.469a1.165 1.165 0 0 1 1.181 1.145v8.015a1.165 1.165 0 0 1-1.181 1.145zM2.954 6.3v1.143h1.772V9.16h1.181V7.443h1.772V6.3H5.907V4.58H4.726V6.3zm2.362-5.155a.582.582 0 0 0-.591.572.591.591 0 0 0 1.181 0 .582.582 0 0 0-.59-.572z" data-name="Exclusion 1"></path>
</svg>