<svg xmlns="http://www.w3.org/2000/svg" width="11.344" height="13.5" viewBox="0 0 11.344 13.5">
    <defs>
        <style>
            .prefix__cls-1{fill:#b569a7;stroke:#b767a8;stroke-width:.5px}
        </style>
    </defs>
    <g id="prefix__Group_235" data-name="Group 235" transform="translate(-1074.241 -1111.25)">
        <g id="prefix__Group_233" data-name="Group 233" transform="translate(1074.491 1111.5)">
            <path id="prefix__Path_1013" d="M1082.29 1124.5a.875.875 0 0 1-.831-.544 9.287 9.287 0 0 1-.49-2.378 10 10 0 0 0-.412-2.133.652.652 0 0 0-1.285 0 10 10 0 0 0-.412 2.133 9.286 9.286 0 0 1-.49 2.378.875.875 0 0 1-.831.544.9.9 0 0 1-.853-.552 10 10 0 0 1-.639-2.36c-.078-.408-.152-.793-.236-1.128a5.539 5.539 0 0 1-.121-1.346 3.51 3.51 0 0 0-.1-1.041c-.105-.315-.27-.7-.429-1.073s-.328-.767-.438-1.1a5.416 5.416 0 0 1-.228-1.808 2.718 2.718 0 0 1 .713-1.883 2.173 2.173 0 0 1 1.672-.715 8.838 8.838 0 0 1 1.356.2 6.1 6.1 0 0 0 3.365 0 8.769 8.769 0 0 1 1.35-.2 2.173 2.173 0 0 1 1.672.715 2.718 2.718 0 0 1 .713 1.883 5.416 5.416 0 0 1-.228 1.808c-.11.328-.277.718-.438 1.1s-.324.757-.429 1.073a3.506 3.506 0 0 0-.1 1.041 5.547 5.547 0 0 1-.121 1.347c-.084.335-.158.72-.236 1.128a10.008 10.008 0 0 1-.639 2.359.9.9 0 0 1-.855.552zm-2.376-6.03a1.241 1.241 0 0 1 1.038.8 9.868 9.868 0 0 1 .448 2.255 9.432 9.432 0 0 0 .448 2.241.45.45 0 0 0 .443.3.469.469 0 0 0 .465-.313 9.737 9.737 0 0 0 .6-2.248c.08-.414.155-.8.241-1.151a5.119 5.119 0 0 0 .108-1.243 3.8 3.8 0 0 1 .123-1.176c.111-.332.279-.725.442-1.106s.321-.751.426-1.062a5.011 5.011 0 0 0 .205-1.662 2.323 2.323 0 0 0-.588-1.586 1.732 1.732 0 0 0-1.364-.586 8.686 8.686 0 0 0-1.269.189 6.488 6.488 0 0 1-3.527 0 8.722 8.722 0 0 0-1.275-.19 1.732 1.732 0 0 0-1.364.586 2.324 2.324 0 0 0-.588 1.586 5.012 5.012 0 0 0 .206 1.662c.1.312.268.693.426 1.062s.331.774.442 1.106a3.8 3.8 0 0 1 .122 1.176 5.122 5.122 0 0 0 .108 1.243c.087.347.162.737.241 1.151a9.729 9.729 0 0 0 .6 2.246.47.47 0 0 0 .466.314.451.451 0 0 0 .443-.3 9.432 9.432 0 0 0 .448-2.241 9.861 9.861 0 0 1 .448-2.255 1.241 1.241 0 0 1 1.038-.798z" class="prefix__cls-1" data-name="Path 1013" transform="translate(-1074.491 -1111.5)"/>
        </g>
        <g id="prefix__Group_234" data-name="Group 234" transform="translate(1081.648 1113.451)">
            <path id="prefix__Path_1014" d="M1108.367 1122.235a.867.867 0 1 1 .867-.867.868.868 0 0 1-.867.867zm0-1.3a.434.434 0 1 0 .434.434.434.434 0 0 0-.434-.435z" class="prefix__cls-1" data-name="Path 1014" transform="translate(-1107.5 -1120.5)"/>
        </g>
    </g>
</svg>
