<svg xmlns="http://www.w3.org/2000/svg" width="158.636" height="48.267"><defs><style>.prefix__cls-1{fill:#2b2a29}</style></defs><g id="prefix__Слой_1" transform="translate(127.032 142.983)"><g id="prefix___1747500372432" data-name="1747500372432" transform="translate(-127.032 -142.983)"><path id="prefix__Path_14" d="M-108.485-61.206v-14.831a9.874 9.874 0 00-.929-4.4 6.85 6.85 0 00-2.707-2.95 8.441 8.441 0 00-4.344-1.084 8.224 8.224 0 00-3.23.642 8.1 8.1 0 00-2.714 1.947v-2.2h-4.624v22.876h4.624v-14.1a5.883 5.883 0 01.634-2.839 4.046 4.046 0 011.681-1.659 5.075 5.075 0 012.36-.538 5.136 5.136 0 012.353.531 3.849 3.849 0 011.644 1.645 6.018 6.018 0 01.627 2.861v14.1z" class="prefix__cls-1" data-name="Path 14" transform="translate(127.032 100.174)"/><path id="prefix__Path_15" d="M-21.573-61.207v-15.369a7.277 7.277 0 00-2.375-5.907c-1.586-1.32-3.953-1.991-7.109-1.991a16.233 16.233 0 00-3.348.295 8.332 8.332 0 00-2.647 1.033 9.758 9.758 0 00-2.257 1.984l3.038 2.861a6.248 6.248 0 011.305-1.305 4.457 4.457 0 011.578-.708 9.109 9.109 0 012.153-.214 7.528 7.528 0 012.891.472 3.207 3.207 0 011.637 1.431 5.04 5.04 0 01.5 2.412v1.63h-6.077a10.191 10.191 0 00-4.4.863 5.956 5.956 0 00-2.647 2.33 6.515 6.515 0 00-.892 3.429 7.94 7.94 0 00.465 2.744 6.145 6.145 0 001.35 2.2 6.458 6.458 0 002.537 1.578 11.384 11.384 0 003.629.509 11.351 11.351 0 002.493-.236 6.771 6.771 0 001.932-.759 8.815 8.815 0 001.7-1.357v2.08zM-26.2-69.5a7.489 7.489 0 01-.236 2.058A3.132 3.132 0 01-27.2-66.1a4.358 4.358 0 01-1.268.863 4.733 4.733 0 01-1.409.376 12.453 12.453 0 01-1.63.081 5.063 5.063 0 01-3.2-.848 2.932 2.932 0 01-1.018-2.419 2.99 2.99 0 011.04-2.441 4.8 4.8 0 013.082-.87h5.4z" class="prefix__cls-1" data-name="Path 15" transform="translate(63.512 100.175)"/><path id="prefix__Path_16" d="M64.081-60.462h-4.9l-5.4-16.187-5.437 16.187h-4.9l8.437-22.994h3.768z" class="prefix__cls-1" data-name="Path 16" transform="translate(2.305 99.43)"/><path id="prefix__Path_17" d="M135.394-83.072v14.69a12.993 12.993 0 00.206 2.448 7.979 7.979 0 00.723 2.168 6.894 6.894 0 001.386 1.873 7.044 7.044 0 002.456 1.534 9.206 9.206 0 003.215.553 8.821 8.821 0 003.333-.641 7.956 7.956 0 002.788-1.947v2.316h4.536v-22.994h-4.624v14.012a5.937 5.937 0 01-.664 2.906 4.08 4.08 0 01-1.718 1.674 5.125 5.125 0 01-2.382.546 5.021 5.021 0 01-2.353-.531 3.862 3.862 0 01-1.644-1.667 6.174 6.174 0 01-.627-2.928v-14.012z" class="prefix__cls-1" data-name="Path 17" transform="translate(-64.973 99.149)"/><path id="prefix__Path_18" d="M314.333-72.726a31.845 31.845 0 00-.162-3.547 14.445 14.445 0 00-.723-3.392 7.443 7.443 0 00-1.7-2.766 6.507 6.507 0 00-2.419-1.5 9.425 9.425 0 00-3.2-.546 9.775 9.775 0 00-2.3.243 6.454 6.454 0 00-2 .848 7.876 7.876 0 00-1.777 1.63V-84.2h-4.543v32.293h4.631V-63.56a7.709 7.709 0 001.77 1.571 6.718 6.718 0 001.976.818 9.846 9.846 0 002.286.236 9.273 9.273 0 003.179-.538 6.633 6.633 0 002.4-1.5 7.054 7.054 0 001.387-2.013 11.308 11.308 0 00.774-2.419 20.767 20.767 0 00.354-2.655 45.16 45.16 0 00.067-2.666zm-4.624 0a22.919 22.919 0 01-.162 2.92 8.279 8.279 0 01-.656 2.448 3.915 3.915 0 01-1.446 1.681 4.708 4.708 0 01-2.5.619 4.765 4.765 0 01-2.515-.619 3.933 3.933 0 01-1.453-1.681 8.279 8.279 0 01-.678-2.448 21.673 21.673 0 01-.162-2.92 21.448 21.448 0 01.162-2.906 8.178 8.178 0 01.678-2.434 3.849 3.849 0 011.453-1.667 4.766 4.766 0 012.515-.612 4.709 4.709 0 012.5.612 3.832 3.832 0 011.446 1.667 8.177 8.177 0 01.656 2.434 22.68 22.68 0 01.162 2.906z" class="prefix__cls-1" data-name="Path 18" transform="translate(-182.121 100.175)"/><path id="prefix__Path_19" d="M396.348-61.207v-15.369a7.254 7.254 0 00-2.375-5.907c-1.585-1.32-3.953-1.991-7.1-1.991a16.234 16.234 0 00-3.348.295 8.266 8.266 0 00-2.647 1.033 9.779 9.779 0 00-2.264 1.984l3.036 2.862a6.267 6.267 0 011.313-1.305 4.361 4.361 0 011.571-.708 9.109 9.109 0 012.153-.214 7.593 7.593 0 012.9.472 3.22 3.22 0 011.63 1.431 5.034 5.034 0 01.509 2.412v1.63h-6.077a10.224 10.224 0 00-4.4.863 5.956 5.956 0 00-2.647 2.33 6.514 6.514 0 00-.892 3.429 7.935 7.935 0 00.472 2.744 6.127 6.127 0 001.342 2.2 6.487 6.487 0 002.544 1.578 11.319 11.319 0 003.628.509 11.278 11.278 0 002.485-.236 6.813 6.813 0 001.94-.759 9 9 0 001.7-1.357v2.08zm-4.624-8.3a7.186 7.186 0 01-.243 2.058 3.12 3.12 0 01-.752 1.342 4.383 4.383 0 01-1.276.863 4.69 4.69 0 01-1.4.376 12.636 12.636 0 01-1.637.081 5.04 5.04 0 01-3.193-.848 2.917 2.917 0 01-1.025-2.419 2.974 2.974 0 011.047-2.441 4.769 4.769 0 013.082-.87h5.4z" class="prefix__cls-1" data-name="Path 19" transform="translate(-242.262 100.175)"/><path id="prefix__Path_20" d="M234.549-79.145v-3.872h-17.67v3.872h6.421v19.263h4.6v-19.263z" class="prefix__cls-1" data-name="Path 20" transform="translate(-124.593 99.108)"/><path id="prefix__Path_21" fill="#a82682" d="M451.73 6.783h-4.55v-4.55h4.55z" data-name="Path 21" transform="translate(-293.094 36.735)"/><path id="prefix__Path_22" d="M-124.092-142.806h2.153l2.175 6.6 2.419-6.6h2v8.252h-1.4v-6.646l-2.434 6.644h-1.246l-2.3-6.962v6.962h-1.365zm16.512 5.583l1.445.184a3.5 3.5 0 01-1.261 1.962 3.791 3.791 0 01-2.353.693 3.783 3.783 0 01-2.869-1.106 4.376 4.376 0 01-1.055-3.119 4.522 4.522 0 011.069-3.223 3.615 3.615 0 012.773-1.151 3.543 3.543 0 012.7 1.121 4.5 4.5 0 011.047 3.163c0 .089-.008.207-.015.376h-6.143a3.171 3.171 0 00.767 2.072 2.273 2.273 0 001.726.723 2.1 2.1 0 001.305-.406 2.688 2.688 0 00.864-1.289zm-4.58-2.242h4.594a2.777 2.777 0 00-.524-1.563 2.146 2.146 0 00-1.733-.811 2.19 2.19 0 00-1.615.649 2.541 2.541 0 00-.722 1.725zm8.54-3.341h5.759v7.109h.885v3.481h-1.143v-2.338h-6.5v2.338h-1.143v-3.484h.73q1.479-2.01 1.412-7.106zm1.165 1.158a13.8 13.8 0 01-1.245 5.948h4.439v-5.951zm7.013-1.158h1.4v6.29l3.886-6.29h1.5v8.252h-1.4v-6.253l-3.879 6.253h-1.512zm8.9 0h1.4v7.109h3.879v-7.109h1.4v7.109h.907v3.481H-80.1v-2.338h-6.44zm9.093 0h1.4v6.29l3.886-6.29h1.5v8.252h-1.4v-6.253l-3.879 6.253h-1.512zm8.886 0h1.394v3.429h3.886v-3.429h1.394v8.252h-1.394v-3.658h-3.886v3.658h-1.394zm14.167 5.229l1.372.192a3.561 3.561 0 01-1.15 2.2 3.344 3.344 0 01-2.279.8 3.509 3.509 0 01-2.714-1.1 4.478 4.478 0 01-1.032-3.164 5.745 5.745 0 01.442-2.338 3.078 3.078 0 011.35-1.5 3.981 3.981 0 011.962-.5 3.443 3.443 0 012.2.679 3.091 3.091 0 011.091 1.932l-1.349.206a2.272 2.272 0 00-.686-1.253 1.79 1.79 0 00-1.195-.42 2.161 2.161 0 00-1.718.76 3.557 3.557 0 00-.664 2.389 3.731 3.731 0 00.634 2.412 2.085 2.085 0 001.667.752 1.919 1.919 0 001.371-.5 2.457 2.457 0 00.7-1.547zm2.544-5.229h1.4v3.562a1.354 1.354 0 00.937-.258 5.537 5.537 0 00.789-1.49 6.128 6.128 0 01.671-1.29 1.29 1.29 0 01.59-.42 4.076 4.076 0 011.069-.1h.288v1.15l-.391-.007a1.068 1.068 0 00-.708.162 4.1 4.1 0 00-.5 1.018 4.168 4.168 0 01-.583 1.121 2.368 2.368 0 01-.818.568 3.4 3.4 0 011.784 1.681l1.534 2.559h-1.541l-1.512-2.551a3.389 3.389 0 00-.8-1.018 1.311 1.311 0 00-.811-.251v3.82h-1.4zm6.977 0h1.394v6.29l3.894-6.29h1.5v8.252h-1.394v-6.253l-3.886 6.253h-1.5zm14.506 5.583l1.453.184a3.541 3.541 0 01-1.261 1.962 3.812 3.812 0 01-2.36.693 3.777 3.777 0 01-2.863-1.106 4.344 4.344 0 01-1.055-3.119 4.552 4.552 0 011.062-3.223 3.631 3.631 0 012.78-1.151 3.516 3.516 0 012.692 1.121 4.463 4.463 0 011.047 3.163c0 .089 0 .207-.008.376h-6.143a3.13 3.13 0 00.767 2.072 2.256 2.256 0 001.718.723 2.108 2.108 0 001.313-.406 2.629 2.629 0 00.859-1.289zm-4.572-2.242h4.594a2.833 2.833 0 00-.531-1.563 2.132 2.132 0 00-1.726-.811 2.191 2.191 0 00-1.615.649 2.544 2.544 0 00-.721 1.725zm12.227-3.341h1.394v7.109h3.879v-7.109h1.4v7.109h.907v3.481h-1.143v-2.338h-6.438zm14.543 5.583l1.446.184a3.541 3.541 0 01-1.261 1.962 3.8 3.8 0 01-2.36.693 3.777 3.777 0 01-2.861-1.106 4.376 4.376 0 01-1.055-3.119 4.522 4.522 0 011.069-3.223 3.6 3.6 0 012.773-1.151 3.516 3.516 0 012.692 1.121A4.463 4.463 0 01-6.68-138.7c0 .089 0 .207-.007.376h-6.143a3.17 3.17 0 00.767 2.072 2.256 2.256 0 001.718.723 2.108 2.108 0 001.313-.406 2.688 2.688 0 00.862-1.288zm-4.58-2.242h4.594a2.721 2.721 0 00-.531-1.563 2.132 2.132 0 00-1.725-.811 2.191 2.191 0 00-1.615.649 2.544 2.544 0 00-.722 1.725zm7.795-3.341h1.394v3.429h3.88v-3.429h1.4v8.252h-1.4v-3.658h-3.879v3.658h-1.394zm8.046 0h6.682v1.158H7.133v7.094h-1.4v-7.094H3.091zm8.016 11.416v-11.416h1.268v1.084a3.135 3.135 0 011.018-.944 2.734 2.734 0 011.372-.317 3.212 3.212 0 011.866.546 3.317 3.317 0 011.217 1.527 5.594 5.594 0 01.413 2.168 5.6 5.6 0 01-.45 2.271 3.436 3.436 0 01-1.32 1.556 3.433 3.433 0 01-1.822.531 2.686 2.686 0 01-1.254-.287 2.936 2.936 0 01-.914-.745v4.026zm1.268-7.242a3.59 3.59 0 00.642 2.345 1.968 1.968 0 001.556.76 1.992 1.992 0 001.593-.789 3.717 3.717 0 00.664-2.434 3.61 3.61 0 00-.649-2.353 1.931 1.931 0 00-1.541-.782 2.013 2.013 0 00-1.578.833 3.708 3.708 0 00-.685 2.42zm15.426-4.174h1.4v8.252h-1.4zm-7.81 0h1.4v3.223h1.762a4.533 4.533 0 012.662.671 2.16 2.16 0 01.937 1.859 2.346 2.346 0 01-.782 1.762 3.522 3.522 0 01-2.493.737h-3.482zm1.4 7.109h1.468a3.968 3.968 0 001.9-.332 1.089 1.089 0 00.568-1.018 1.312 1.312 0 00-.42-.951 2.79 2.79 0 00-1.858-.42h-1.653z" class="prefix__cls-1" data-name="Path 22" transform="translate(124.881 142.983)"/></g></g></svg>