<svg xmlns="http://www.w3.org/2000/svg" width="14.581" height="13.17" viewBox="0 0 14.581 13.17">
    <defs>
        <style>
            .prefix__cls-1{fill:#a82682}
        </style>
    </defs>
    <g id="prefix__Group_293" data-name="Group 293" transform="translate(-1162 -1129.5)">
        <path id="prefix__Path_1035" d="M1162.941 1130.754v9.564a2.352 2.352 0 0 0 4.7 0v-9.564l.941-1.254H1162zm4.7-.784l-.47.627v1.725h-1.881v.47h1.881v.941h-1.881v.47h1.881v.941h-1.881v.47h1.881v.941h-1.881v.47h1.881v.941h-1.881v.471h1.881v.941h-1.881v.47h1.881v.47a1.881 1.881 0 1 1-3.763 0v-9.718l-.47-.627z" class="prefix__cls-1" data-name="Path 1035"/>
        <path id="prefix__Path_1036" d="M1196 1129.5l.941 1.254v9.564a2.352 2.352 0 0 0 4.7 0v-9.564l.941-1.254zm3.293 12.7a1.884 1.884 0 0 1-1.881-1.881v-7.761h3.763v7.761a1.884 1.884 0 0 1-1.882 1.881zm1.881-11.6v1.49h-3.763v-1.49l-.47-.627h4.7z" class="prefix__cls-1" data-name="Path 1036" transform="translate(-26.004)"/>
    </g>
</svg>
