<svg xmlns="http://www.w3.org/2000/svg" width="6.958" height="14.058" viewBox="0 0 6.958 14.058">
    <path id="prefix__Path_1011" fill="#a82682" d="M163.5 210.883a1.861 1.861 0 0 0 .343-1.081 1.877 1.877 0 1 0-3.438 1.04 2.635 2.635 0 0 0-2 2.553v2.751a1.113 1.113 0 0 0 1.111 1.117 1.086 1.086 0 0 0 .229-.024v3.485a1.259 1.259 0 0 0 2.153.884 1.246 1.246 0 0 0 .892.373 1.259 1.259 0 0 0 1.259-1.257v-3.481a1.212 1.212 0 0 0 .209.02 1.112 1.112 0 0 0 1.109-1.111V213.4a2.63 2.63 0 0 0-1.867-2.517zm-1.533-2.4a1.313 1.313 0 1 1-1.312 1.314 1.313 1.313 0 0 1 1.314-1.31zm2.828 7.664a.547.547 0 0 1-1.093 0v-2.857h-.223v7.43a.694.694 0 0 1-1.387 0v-4h-.4V220.718a.694.694 0 0 1-1.387 0v-7.43h-.247v2.858a.548.548 0 0 1-1.1 0V213.4a2.063 2.063 0 0 1 2.062-2.062h1.7a2.063 2.063 0 0 1 2.08 2.062z" data-name="Path 1011" transform="translate(-158.403 -207.923)"/>
</svg>
