<svg xmlns="http://www.w3.org/2000/svg" width="11.45" height="11.45" viewBox="0 0 11.45 11.45">
    <path id="prefix__Path_782" fill="#fff" d="M13.82 10.875a7.279 7.279 0 0 1-2.245-.356.622.622 0 0 0-.642.153l-1 1.253A9.658 9.658 0 0 1 5.551 7.58l1.24-1.056a.649.649 0 0 0 .153-.649 7.094 7.094 0 0 1-.356-2.245.635.635 0 0 0-.63-.63h-2.2C3.413 3 3 3.153 3 3.63a10.911 10.911 0 0 0 10.82 10.82.667.667 0 0 0 .63-.751V11.5a.635.635 0 0 0-.63-.625z" data-name="Path 782" transform="translate(-3 -3)"></path>
</svg>